<?xml version="1.0" encoding="UTF-8" standalone="no"?>
<!-- Created with Inkscape (http://www.inkscape.org/) -->

<svg
   width="32.030457mm"
   height="30.618612mm"
   viewBox="0 0 32.030457 30.618612"
   version="1.1"
   id="svg1"
   xml:space="preserve"
   xmlns="http://www.w3.org/2000/svg"
   xmlns:svg="http://www.w3.org/2000/svg"><defs
     id="defs1" /><g
     id="layer1"
     transform="translate(-63.095182,-132.46084)"><g
       id="g3"><g
         id="g2"
         transform="matrix(0.26458333,0,0,0.26458333,62.177084,134.93836)"><path
           d="m 70.24,100.79 48.55,4.62 c 4.57,0.44 5.74,-2.11 5.74,-4.27 L 124.48,98.52 64.77,90.1 c 0,2.99 2.43,10.69 5.47,10.69"
           style="fill:#c62828"
           id="path1-7" /><path
           d="m 72.01,98.51 7.64,0.67 40.91,3.95 c 2.2,0 3.97,-1.75 3.97,-3.91 l -2.17,-66.26 c 0,-2.16 -1.78,-3.91 -3.97,-3.91 L 72.01,24.67 c -3.04,0 -5.51,2.43 -5.51,5.42 v 63 c 0,2.99 2.46,5.42 5.51,5.42"
           style="fill:#f44336"
           id="path2" /><path
           d="m 57.76,100.79 -48.55,4.62 c -4.57,0.44 -5.74,-2.11 -5.74,-4.27 l 0.05,-2.62 59.71,-8.43 c 0,3 -2.43,10.7 -5.47,10.7"
           style="fill:#c62828"
           id="path3" /><path
           d="m 55.99,98.51 -7.58,0.67 -40.97,3.96 c -2.2,0 -3.97,-1.75 -3.97,-3.91 L 5.64,32.97 c 0,-2.16 1.78,-3.91 3.97,-3.91 l 46.38,-4.38 c 3.04,0 5.51,2.43 5.51,5.42 v 63 c 0,2.98 -2.46,5.41 -5.51,5.41"
           style="fill:#f44336"
           id="path4" /><path
           d="M 78.75,83.68 H 49.27 l -0.9,15.53 9.2,0.86 c 0,0 1.97,4.92 6.43,4.92 4.46,0 6.43,-4.92 6.43,-4.92 l 9.2,-0.86 z"
           style="fill:#424242"
           id="path5" /><path
           d="m 79.54,100.43 -8.57,-0.74 m -22.51,0.74 8.57,-0.74"
           style="fill:none;stroke:#616161;stroke-width:2.5;stroke-miterlimit:10"
           id="path6" /><path
           d="m 119.65,32.82 -4,-5.5 -51.65,58.7 -51.65,-58.7 -4,5.5 -0.56,65.35 c 0,0 10.62,1.33 24.81,-0.11 12.36,-1.25 18.18,-4.45 22.31,-3.62 4.96,1 5.86,4.05 6.02,4.57 0.45,1.44 1.34,2.56 3.07,2.56 1.73,0 2.5,-0.6 3.03,-2.38 0.16,-0.52 1.1,-3.74 6.06,-4.74 4.13,-0.83 9.95,2.37 22.31,3.62 14.19,1.44 24.81,0.11 24.81,0.11 z"
           style="fill:#94c6d6"
           id="path7-9" /><path
           d="m 114.3,91.87 0.16,-26.39 h 5.47 l 0.28,32.69 c 0,0 -4.35,-1.69 -5.91,-6.3"
           style="fill:url(#a)"
           id="path8-3" /><path
           d="m 114.55,76.49 -0.25,15.39 c 0,0 -11.96,-0.62 -31.01,-3.92 C 70.83,85.8 64,92.72 64,92.72 L 63.89,76.49 Z"
           style="fill:url(#b)"
           id="path10" /><path
           d="m 13.45,76.49 0.25,15.39 c 0,0 11.96,-0.62 31.01,-3.92 C 57.17,85.8 64,92.72 64,92.72 L 63.89,76.49 Z"
           style="fill:url(#c)"
           id="path12-8" /><path
           d="M 13.7,91.87 13.54,65.48 H 8.06 L 7.79,98.17 c 0,0 4.34,-1.69 5.91,-6.3"
           style="fill:url(#d)"
           id="path14" /><path
           d="m 115.65,27.32 c 0,0 -26.54,-4.99 -38.19,-5.64 C 66.5,21.07 64.25,26.65 64.03,27.32 H 63.99 C 63.76,26.65 61.51,21.08 50.55,21.68 38.9,22.33 12.36,27.32 12.36,27.32 l -1.18,64.4 c 0,0 31.6,-6.62 39.25,-5.76 7.65,0.86 13.57,6.76 13.57,6.76 v -0.01 0.01 c 0,0 5.93,-5.9 13.58,-6.76 7.65,-0.86 39.25,5.76 39.25,5.76 z"
           style="fill:#f5f5f5"
           id="path15" /><path
           d="m 53.62,21.69 -5.4,64.2 c 0.85,-0.02 1.6,0 2.2,0.07 7.64,0.85 13.58,6.76 13.58,6.76 l -0.17,-65.4 c 0,0 -1.3,-5.12 -10.21,-5.63"
           style="opacity:0.26;fill:#94c6d6"
           id="path16" /><g
           style="opacity:0.5"
           id="g17"><path
             d="m 25.31,30.18 c -2.7,0.47 -4.91,0.87 -6.17,1.09 0,0.62 0,1.3 -0.01,2.03 1.11,-0.2 3.37,-0.61 6.18,-1.1 z m 24.34,-3.22 v 1.99 c 5.33,-0.01 8.28,1.33 9.25,1.87 0,-0.83 0.01,-1.57 0.01,-2.22 -1.65,-0.74 -4.67,-1.65 -9.26,-1.64 m -4.34,0.25 c -4.33,0.44 -10.36,1.36 -15.66,2.24 v 2.03 c 5.26,-0.87 11.3,-1.8 15.66,-2.26 z m -10.65,8.63 c -6.46,1 -12.94,2.16 -15.54,2.63 v 2.03 c 2.26,-0.41 8.89,-1.61 15.54,-2.64 z m 12.03,-1.56 c -2.11,0.17 -4.8,0.51 -7.69,0.91 v 2.02 c 2.95,-0.42 5.71,-0.76 7.85,-0.94 7.18,-0.59 10.97,1.17 12.03,1.77 V 35.81 C 56.92,34.94 52.99,33.76 46.69,34.28 M 26.38,44.39 c -3.16,0.54 -5.8,1.01 -7.26,1.28 v 2.03 c 1.31,-0.24 3.99,-0.72 7.26,-1.28 z m 32.5,-1.35 c -1.95,-0.88 -5.89,-2.08 -12.25,-1.55 -4.07,0.33 -10.3,1.26 -15.91,2.18 v 2.03 c 5.66,-0.93 11.98,-1.87 16.08,-2.21 7.3,-0.6 11.1,1.23 12.08,1.8 z m 0.01,7.23 C 56.96,49.39 53,48.16 46.59,48.69 c -0.65,0.05 -1.35,0.12 -2.09,0.2 v 2.01 c 0.81,-0.09 1.56,-0.16 2.26,-0.22 7.44,-0.61 11.24,1.3 12.14,1.84 -0.01,-0.75 -0.01,-1.5 -0.01,-2.25 M 40.15,49.43 c -7.82,1.07 -17.56,2.8 -21.02,3.43 v 2.03 c 3.05,-0.56 13.02,-2.35 21.02,-3.45 z m -11.9,9.04 c -3.93,0.66 -7.33,1.27 -9.12,1.59 v 2.03 c 1.62,-0.3 5.07,-0.92 9.12,-1.6 z M 58.9,57.51 c -1.91,-0.88 -5.89,-2.14 -12.36,-1.61 -3.6,0.3 -8.88,1.05 -13.94,1.86 v 2.02 c 5.11,-0.82 10.48,-1.59 14.1,-1.89 7.63,-0.63 11.44,1.41 12.2,1.87 z m 0.02,14.47 C 57.1,71.11 53.16,69.8 46.66,70.29 v 2.01 c 8.29,-0.67 12.05,1.81 12.26,1.96 z m -32.54,1.2 c -3.08,0.53 -5.7,0.99 -7.23,1.27 v 2.03 c 1.41,-0.26 4.05,-0.73 7.23,-1.28 z m 4.34,-0.72 v 2.03 c 3.88,-0.63 8.05,-1.27 11.6,-1.72 v -2.02 c -3.53,0.44 -7.7,1.07 -11.6,1.71 m 6.95,6.12 c -7.16,1.04 -15.21,2.47 -18.51,3.07 v 2.03 c 2.99,-0.55 11.19,-2.01 18.51,-3.08 z m 21.26,0.64 c -1.81,-0.88 -5.84,-2.25 -12.56,-1.7 -1.27,0.1 -2.75,0.27 -4.36,0.47 V 80 c 1.67,-0.21 3.21,-0.38 4.52,-0.49 8.56,-0.71 12.32,1.95 12.36,1.97 l 0.05,-0.06 c 0,-0.69 0,-1.42 -0.01,-2.2 M 36.18,64.4 c -6.82,1.02 -14.05,2.31 -17.04,2.86 v 2.03 c 2.68,-0.49 10.05,-1.81 17.04,-2.87 z m 22.73,0.34 c -1.88,-0.88 -5.87,-2.18 -12.43,-1.64 -1.68,0.14 -3.73,0.38 -5.95,0.68 v 2.02 c 2.29,-0.31 4.4,-0.56 6.12,-0.7 7.88,-0.65 11.69,1.54 12.27,1.91 -0.01,-0.74 -0.01,-1.5 -0.01,-2.27"
             style="fill:#757575"
             id="path17" /></g><g
           style="opacity:0.5"
           id="g18"><path
             d="m 88.41,29.71 c 8.28,1.1 19.1,3.06 22.04,3.59 0,-0.74 0,-1.41 -0.01,-2.03 C 107,30.64 96.47,28.76 88.4,27.69 v 2.02 z m -4.35,-2.52 c -0.43,-0.04 -0.84,-0.08 -1.23,-0.11 -6.27,-0.52 -10.19,0.65 -12.16,1.52 0,0.65 0.01,1.4 0.01,2.22 1.12,-0.62 4.91,-2.33 11.99,-1.75 0.44,0.04 0.91,0.08 1.39,0.13 z m 18.3,11.89 a 673,673 0 0 1 8.1,1.43 v -2.03 c -1.57,-0.29 -4.55,-0.82 -8.1,-1.42 z M 98.02,36.33 C 92.61,35.46 86.77,34.6 82.89,34.28 c -6.3,-0.52 -10.23,0.66 -12.2,1.53 v 2.23 c 1.06,-0.6 4.85,-2.36 12.03,-1.77 3.91,0.32 9.84,1.2 15.29,2.08 v -2.02 z m -0.84,7.06 v 2.02 c 5.81,0.93 11.22,1.91 13.28,2.29 V 45.67 C 108.13,45.25 102.82,44.3 97.18,43.39 M 88.4,49.3 c -2.01,-0.26 -3.87,-0.48 -5.41,-0.6 -6.41,-0.53 -10.37,0.7 -12.3,1.58 v 2.25 c 0.9,-0.53 4.71,-2.45 12.14,-1.84 1.58,0.13 3.5,0.35 5.57,0.63 z m 4.35,0.61 v 2.02 c 7.25,1.08 15.06,2.49 17.7,2.97 v -2.03 c -2.98,-0.55 -10.63,-1.91 -17.7,-2.96 m 0.88,7.33 C 89.68,56.64 85.85,56.13 83.05,55.9 76.57,55.37 72.59,56.63 70.69,57.51 v 2.26 c 0.76,-0.47 4.57,-2.5 12.2,-1.87 2.83,0.23 6.74,0.76 10.75,1.37 v -2.03 z m 4.34,0.68 v 2.03 c 5.44,0.88 10.42,1.78 12.47,2.15 v -2.03 c -2.28,-0.42 -7.18,-1.3 -12.47,-2.15 m 7.07,8.38 v 2.03 c 2.36,0.41 4.29,0.76 5.39,0.96 v -2.03 c -1.2,-0.22 -3.1,-0.56 -5.39,-0.96 M 89.29,71.01 C 87,70.7 84.88,70.45 83.16,70.31 76.52,69.76 72.51,71.1 70.67,71.98 v 2.28 c 0.21,-0.15 3.99,-2.65 12.34,-1.96 1.76,0.14 3.94,0.4 6.3,0.72 v -2.01 z m 4.34,0.62 v 2.02 c 6.88,1.04 14.1,2.34 16.8,2.83 v -2.03 c -3,-0.54 -10.08,-1.8 -16.8,-2.82 m 3.55,7.75 C 92.11,78.57 86.81,77.81 83.21,77.51 76.48,76.96 72.46,78.34 70.65,79.21 v 2.2 l 0.05,0.06 c 0.03,-0.02 3.79,-2.68 12.36,-1.97 3.63,0.3 9.02,1.08 14.14,1.9 v -2.02 z m 4.35,0.72 v 2.03 c 3.89,0.65 7.21,1.25 8.89,1.56 v -2.03 c -1.83,-0.34 -5.11,-0.93 -8.89,-1.56 M 82.93,63.09 c -6.46,-0.51 -10.4,0.78 -12.26,1.65 v 2.27 c 0.58,-0.37 4.38,-2.56 12.26,-1.91 z m 4.35,0.46 v 2.01 c 4.12,0.52 9.07,1.3 13.42,2.02 v -2.03 c -4.38,-0.72 -9.33,-1.49 -13.42,-2 M 79.72,41.37 c -4.48,0.03 -7.43,0.95 -9.02,1.67 v 2.24 c 0.84,-0.48 3.71,-1.87 9.02,-1.92 z m 4.34,0.22 v 2.01 c 2.49,0.25 5.58,0.67 8.77,1.14 v -2.02 c -3.2,-0.48 -6.28,-0.89 -8.77,-1.13"
             style="fill:#757575"
             id="path18" /></g><path
           d="m 71.16,98.45 c -1.12,-0.1 -2.15,0.59 -2.51,1.66 -0.54,1.63 -1.8,3.76 -4.65,3.76 -2.88,0 -4.15,-2.14 -4.7,-3.77 a 2.415,2.415 0 0 0 -2.48,-1.64 l -0.39,0.03 0.01,0.32 a 7.55,7.55 0 0 0 7.55,7.55 7.55,7.55 0 0 0 7.55,-7.55 c 0,-0.1 -0.01,-0.33 -0.01,-0.33 z"
           style="fill:#616161"
           id="path19" /></g><g
         id="g1"
         transform="matrix(0.20741471,0,0,0.21326852,66.307038,131.49034)"><path
           d="m 32.6,5.38 c -0.47,0.86 0.09,1.97 2.16,2.82 2.06,0.84 6.48,2.72 7.79,4.79 1.31,2.07 1.97,3.75 0.56,7.23 -1.41,3.48 1.97,4.04 1.97,4.04 0,0 3.47,-4.13 1.41,-10.04 C 44.43,8.31 37.29,5.87 36.26,5.49 35.23,5.1 33.16,4.35 32.6,5.38"
           style="fill:#70853c"
           id="path1" /><ellipse
           cx="36.52"
           cy="99.580002"
           rx="5.2399998"
           ry="5.4299998"
           style="fill:#70853c"
           transform="rotate(-40.352,36.523,99.58)"
           id="ellipse1" /><ellipse
           cx="52.009998"
           cy="109.29"
           rx="5.2399998"
           ry="5.4299998"
           style="fill:#70853c"
           transform="rotate(-64.247,52.009,109.292)"
           id="ellipse2" /><ellipse
           cx="72.279999"
           cy="112.95"
           rx="5.2399998"
           ry="5.4299998"
           style="fill:#70853c"
           transform="rotate(-80.811,72.271,112.947)"
           id="ellipse3" /><ellipse
           cx="91.279999"
           cy="116.75"
           rx="5.2399998"
           ry="5.4299998"
           style="fill:#70853c"
           transform="rotate(-80.811,91.275,116.748)"
           id="ellipse4" /><ellipse
           cx="23.799999"
           cy="53.009998"
           rx="5.1399999"
           ry="4.9299998"
           style="fill:#70853c"
           id="ellipse5" /><ellipse
           cx="24.5"
           cy="68.360001"
           rx="5.1399999"
           ry="4.9299998"
           style="fill:#70853c"
           transform="rotate(-4.863,24.505,68.316)"
           id="ellipse6" /><ellipse
           cx="28.16"
           cy="84.699997"
           rx="5.4000001"
           ry="5.52"
           style="fill:#70853c"
           transform="rotate(-19.038,28.155,84.683)"
           id="ellipse7" /><path
           d="m 55.41,73.57 c 6.19,10.42 25.34,10.28 43.5,16.19 11.92,3.88 19.29,13.09 17.88,21.68 -1.41,8.59 -7.47,10.8 -12.67,10.56 -6.19,-0.28 -13.66,-5.49 -19.29,-6.76 C 79.2,113.97 56.91,111.77 51.04,109.33 44.28,106.51 35.55,100.46 30.35,91.45 25.43,82.93 24.44,67.52 24.3,60.48 24.16,53.44 24.44,46.68 23.88,44.99 23.32,43.3 13.85,43.22 11.91,34.71 9.8,25.42 16.56,15.56 26.55,13.73 c 9.99,-1.83 22.52,2.96 25.9,14.5 3.38,11.55 -1.75,37.42 2.96,45.34"
           style="fill:#b7d019"
           id="path7" /><path
           d="m 30.72,62.26 c -0.64,1.52 1.18,2.65 3.75,2.86 3.38,0.28 8.47,-1.06 12.34,-2.53 4.04,-1.54 6.55,-3.45 6.55,-3.45 l -0.07,-4.29 c 0,0 -2.75,2.67 -9.06,4.6 -3.02,0.92 -7.32,1.88 -8.78,1.92 -1.44,0.04 -4.21,-0.33 -4.73,0.89 M 45.13,4.77 c -0.93,0.72 -0.35,1.94 0.42,3 0.89,1.22 2.96,3.94 3.05,6.52 0.06,1.55 -0.47,5.71 -1.17,6.85 -1.17,1.92 1.36,3.33 2.63,2.53 1.55,-0.97 2.2,-7.33 1.92,-10.04 C 51.51,8.94 48.84,6.73 47.9,5.79 47.14,5.05 45.97,4.12 45.13,4.77 m 52.93,84.7 c 0,0 0.19,6.79 -0.84,10.37 -1.17,4.08 -2.63,7.27 -3.38,8.78 -0.32,0.64 -0.56,1.55 0.23,2.16 0.79,0.61 2.16,0.14 2.72,-0.7 0.67,-1.01 2.96,-4.79 3.99,-9.48 1.39,-6.33 0.94,-9.9 0.94,-9.9 0,0 -1.36,-0.56 -1.88,-0.7 -0.51,-0.15 -1.78,-0.53 -1.78,-0.53 M 81.07,85.25 c 0,0 0.19,5.21 -0.99,9.62 -0.8,3 -2.86,7.13 -3.28,7.98 -0.42,0.84 -1.34,2.25 -0.47,3.33 1.25,1.56 3.26,-0.33 3.92,-1.78 0.43,-0.96 2.4,-4.19 3.59,-8.78 1.36,-5.26 0.99,-9.53 0.99,-9.53 z M 64.32,80.7 c 0,0 -0.49,6.73 -2.11,9.76 -2.53,4.74 -5.77,7.32 -6.19,7.74 -0.42,0.42 -2.02,1.82 -0.47,2.91 1.27,0.89 2.82,0 3.24,-0.38 0.42,-0.38 5.02,-3.41 7.23,-9.34 C 67.8,86.6 67.9,82 67.9,82 c 0,0 -1.45,-0.56 -1.83,-0.7 -0.39,-0.13 -1.75,-0.6 -1.75,-0.6 m -9.83,-9.25 c 0,0 -3.87,4.6 -6.55,6.48 -3.31,2.33 -7.41,3.61 -8.78,3.75 -1.36,0.14 -3.24,0.28 -3,2.06 0.23,1.78 2.81,1.69 4.18,1.69 2.11,0 7.13,-1.99 10.35,-4.34 3.07,-2.24 5.91,-5.77 5.91,-5.77 0,0 -1.2,-1.5 -1.34,-1.97 -0.14,-0.46 -0.77,-1.9 -0.77,-1.9"
           style="fill:#70853c"
           id="path8" /><circle
           cx="32.169998"
           cy="55.009998"
           r="3.0999999"
           style="fill:#fe6014"
           id="circle8" /><circle
           cx="32.869999"
           cy="74.93"
           r="3.0999999"
           style="fill:#fe6014"
           id="circle9" /><circle
           cx="46.389999"
           cy="94.739998"
           r="3.0999999"
           style="fill:#fe6014"
           id="circle10" /><ellipse
           cx="68.480003"
           cy="103.34"
           rx="2.8800001"
           ry="2.8299999"
           style="fill:#fe6014"
           id="ellipse10" /><ellipse
           cx="87.010002"
           cy="107.78"
           rx="2.8499999"
           ry="2.72"
           style="fill:#fe6014"
           id="ellipse11" /><ellipse
           cx="103.69"
           cy="112.98"
           rx="2.8499999"
           ry="2.72"
           style="fill:#fe6014"
           id="ellipse12" /><path
           d="m 109.1,96.05 c -2.22,-1.09 -3.84,2.56 -4.81,6.49 -0.97,3.93 -1.87,6.58 0.57,7.37 2.98,0.96 5.12,-3.45 5.86,-6.85 0.74,-3.4 0.41,-6.02 -1.62,-7.01 M 92.99,88.84 c -3.52,-0.99 -4.02,3.79 -4.86,7.53 -0.88,3.94 -3.1,7.42 0.07,8.38 3.94,1.2 5.98,-3.85 6.69,-7.04 0.74,-3.31 1.46,-7.93 -1.9,-8.87 m -18.16,-4.5 c -3.68,-0.99 -4.18,3.71 -5.35,7.72 -1.17,4.04 -1.65,7.47 0.56,8.26 2.63,0.94 4.83,-2.06 6.05,-6.15 1.23,-4.09 2.55,-8.82 -1.26,-9.83 m -24.96,8.35 c 2.5,2.7 6.44,-0.68 8.49,-3.57 1.97,-2.77 5.53,-7.39 2.39,-9.76 -2.67,-2.02 -6.02,2.2 -8.02,4.83 -1.78,2.35 -5.25,5.92 -2.86,8.5 M 36.26,73.66 c 0.6,2.41 6.29,3.1 10.75,0.52 3.15,-1.82 6.8,-4.65 5.96,-7.93 -0.88,-3.44 -6.29,-0.33 -9.43,0.94 -3.15,1.26 -8.31,2.34 -7.28,6.47 M 52.8,48.16 c -0.7,-2.39 -4.48,0.12 -8.66,1.48 -3.73,1.22 -8.87,0.99 -8.59,4.88 0.25,3.42 8.01,2 10.98,0.89 3.53,-1.32 7.27,-3.87 6.27,-7.25"
           style="fill:#2e2e27"
           id="path12" /><ellipse
           cx="31.08"
           cy="26.950001"
           rx="3.4300001"
           ry="3.1900001"
           style="fill:#2e2e27"
           transform="rotate(-60,31.077,26.955)"
           id="ellipse13" /></g></g></g></svg>
